<svg width="20" height="20" viewBox="0 0 20 20" fill="none" xmlns="http://www.w3.org/2000/svg">
<path d="M15.6465 19.0585L15.6454 19.0596C15.505 19.2009 15.3378 19.3128 15.1537 19.3887C14.9708 19.4642 14.7749 19.5027 14.5771 19.5021C10.8649 19.4133 7.32222 17.9304 4.65364 15.3485C2.07173 12.6799 0.588848 9.13721 0.500007 5.42503C0.499415 5.22725 0.537941 5.0313 0.613385 4.84844C0.689359 4.6643 0.801249 4.49714 0.942525 4.35671L0.942533 4.35671L0.944889 4.35434L3.64351 1.63573C3.7371 1.54321 3.8634 1.4913 3.99503 1.4913C4.12694 1.4913 4.25349 1.54342 4.34713 1.6363C4.34726 1.63643 4.3474 1.63656 4.34753 1.6367L8.34543 5.63459C8.3456 5.63477 8.34577 5.63494 8.34594 5.63511C8.43875 5.72874 8.49083 5.85524 8.49083 5.98709C8.49083 6.11919 8.43855 6.24591 8.34543 6.33959L8.34537 6.33965L6.75537 7.93965L6.55242 8.14388L6.62718 8.42193C6.94434 9.60141 7.5235 10.6942 8.32152 11.6188L8.34518 11.6462L8.37254 11.6699C9.29623 12.4705 10.3901 13.0503 11.5712 13.3652L11.8487 13.4392L12.0525 13.2368L13.6525 11.6468L13.6525 11.6467C13.7462 11.5536 13.8729 11.5013 14.005 11.5013C14.1369 11.5013 14.2634 11.5534 14.357 11.6462C14.3572 11.6464 14.3574 11.6465 14.3575 11.6467L18.3554 15.6446C18.3556 15.6447 18.3557 15.6449 18.3558 15.645C18.4487 15.7386 18.5008 15.8652 18.5008 15.9971C18.5008 16.1289 18.4487 16.2554 18.3559 16.3491C18.3558 16.3493 18.3556 16.3494 18.3554 16.3496L15.6465 19.0585ZM4.35359 3.05854L4.00003 2.70499L3.64648 3.05854L1.64648 5.05854L1.49467 5.21035L1.5002 5.42498C1.58903 8.87113 2.96631 12.1588 5.36026 14.6393L5.36661 14.6459L5.3732 14.6522C7.85267 17.04 11.136 18.4133 14.5772 18.5019L14.7918 18.5075L14.9436 18.3556L16.9436 16.3556L17.2971 16.0021L16.9436 15.6485L14.3536 13.0585L13.9959 12.7009L13.6424 13.0626L12.3553 14.3797C12.2969 14.4371 12.2254 14.4793 12.1469 14.5026C12.0683 14.5259 11.9853 14.5295 11.905 14.5132C10.3281 14.1614 8.86596 13.4165 7.65444 12.3481C6.58875 11.1372 5.84455 9.67779 5.49044 8.10393C5.47717 8.02414 5.48346 7.94227 5.50881 7.86537C5.53501 7.78588 5.58076 7.71423 5.64185 7.65701L5.64781 7.65142L5.65359 7.64565L6.94359 6.35565L7.29714 6.00209L6.94359 5.64854L4.35359 3.05854ZM19.4964 8.50209H18.4992C18.4692 7.68085 18.3 6.86935 17.9978 6.10247C17.6322 5.17488 17.0798 4.33239 16.3747 3.62738C15.6697 2.92237 14.8273 2.36992 13.8997 2.00435C13.1328 1.70212 12.3213 1.53298 11.5 1.50291V0.505706C12.4554 0.541129 13.3988 0.741218 14.2883 1.09835C15.3293 1.51631 16.275 2.14072 17.0682 2.93394C17.8614 3.72717 18.4858 4.67278 18.9038 5.7138C19.2609 6.60328 19.461 7.54669 19.4964 8.50209Z" fill="#084BBB" stroke="white"/>
<path d="M11.5 5.51961V4.51802C12.7656 4.60078 13.7089 5.00314 14.3539 5.64816C14.999 6.29318 15.4013 7.23647 15.4841 8.50211H14.4825C14.4178 7.61945 14.168 6.88798 13.6411 6.36105C13.1141 5.83413 12.3827 5.58433 11.5 5.51961Z" fill="#084BBB" stroke="white"/>
</svg>
