<svg width="100" height="99" viewBox="0 0 100 99" fill="none" xmlns="http://www.w3.org/2000/svg">
<rect x="16.4036" y="21.2281" width="67.5439" height="14.4737" rx="7.23684" fill="white"/>
<rect x="50.1755" width="49.2105" height="14.4737" rx="7.23684" fill="white"/>
<rect y="40.5263" width="49.2105" height="14.4737" rx="7.23684" fill="white"/>
<rect x="58.8596" y="40.5263" width="15.4386" height="14.4737" rx="7.23684" fill="#05C101"/>
<rect x="25.0876" y="1.92982" width="15.4386" height="14.4737" rx="7.23684" fill="#05C101"/>
<path d="M12.937 73.91C14.593 73.91 16.051 74.171 17.311 74.693C18.589 75.197 19.696 75.944 20.632 76.934L18.391 79.931C17.617 79.121 16.78 78.518 15.88 78.122C14.998 77.708 13.99 77.501 12.856 77.501C12.19 77.501 11.65 77.573 11.236 77.717C10.822 77.861 10.525 78.059 10.345 78.311C10.165 78.563 10.075 78.851 10.075 79.175C10.075 79.553 10.246 79.877 10.588 80.147C10.948 80.399 11.524 80.615 12.316 80.795L15.313 81.47C17.095 81.884 18.4 82.487 19.228 83.279C20.056 84.071 20.47 85.124 20.47 86.438C20.47 87.698 20.146 88.769 19.498 89.651C18.85 90.515 17.959 91.172 16.825 91.622C15.691 92.054 14.395 92.27 12.937 92.27C11.749 92.27 10.615 92.144 9.535 91.892C8.455 91.622 7.483 91.244 6.619 90.758C5.755 90.272 5.026 89.714 4.432 89.084L6.673 85.979C7.123 86.501 7.672 86.969 8.32 87.383C8.986 87.779 9.706 88.094 10.48 88.328C11.272 88.562 12.073 88.679 12.883 88.679C13.513 88.679 14.035 88.616 14.449 88.49C14.881 88.364 15.196 88.175 15.394 87.923C15.592 87.671 15.691 87.374 15.691 87.032C15.691 86.654 15.556 86.339 15.286 86.087C15.016 85.817 14.503 85.592 13.747 85.412L10.453 84.683C9.445 84.449 8.545 84.143 7.753 83.765C6.979 83.369 6.367 82.847 5.917 82.199C5.467 81.533 5.242 80.705 5.242 79.715C5.242 78.599 5.548 77.609 6.16 76.745C6.772 75.863 7.654 75.17 8.806 74.666C9.958 74.162 11.335 73.91 12.937 73.91ZM23.0493 92V72.776H27.6393V80.957C28.0353 80.057 28.6023 79.382 29.3403 78.932C30.0783 78.464 30.9333 78.23 31.9053 78.23C32.8413 78.23 33.6513 78.41 34.3353 78.77C35.0373 79.13 35.5863 79.661 35.9823 80.363C36.3783 81.065 36.5763 81.947 36.5763 83.009V92H31.9863V84.278C31.9863 83.306 31.8063 82.64 31.4463 82.28C31.1043 81.902 30.6453 81.713 30.0693 81.713C29.6373 81.713 29.2323 81.821 28.8543 82.037C28.4763 82.253 28.1793 82.595 27.9633 83.063C27.7473 83.531 27.6393 84.143 27.6393 84.899V92H23.0493ZM42.0875 76.934C41.1515 76.934 40.4675 76.763 40.0355 76.421C39.6215 76.061 39.4145 75.503 39.4145 74.747C39.4145 73.973 39.6215 73.415 40.0355 73.073C40.4675 72.713 41.1515 72.533 42.0875 72.533C43.0055 72.533 43.6805 72.713 44.1125 73.073C44.5445 73.415 44.7605 73.973 44.7605 74.747C44.7605 75.503 44.5445 76.061 44.1125 76.421C43.6805 76.763 43.0055 76.934 42.0875 76.934ZM44.3825 78.5V92H39.7925V78.5H44.3825ZM47.6499 97.67V78.5H51.7809L52.0239 83.387L51.4839 82.82C51.6099 81.92 51.8889 81.128 52.3209 80.444C52.7529 79.76 53.3109 79.22 53.9949 78.824C54.6789 78.428 55.4619 78.23 56.3439 78.23C57.4599 78.23 58.4319 78.509 59.2599 79.067C60.0879 79.607 60.7269 80.399 61.1769 81.443C61.6449 82.469 61.8789 83.72 61.8789 85.196C61.8789 86.672 61.6449 87.941 61.1769 89.003C60.7089 90.065 60.0519 90.875 59.2059 91.433C58.3779 91.991 57.4059 92.27 56.2899 92.27C55.0659 92.27 54.0759 91.91 53.3199 91.19C52.5639 90.452 52.0599 89.525 51.8079 88.409L52.2399 87.761V97.67H47.6499ZM54.7239 88.895C55.5159 88.895 56.1369 88.607 56.5869 88.031C57.0369 87.437 57.2619 86.51 57.2619 85.25C57.2619 83.99 57.0369 83.072 56.5869 82.496C56.1549 81.902 55.5429 81.605 54.7509 81.605C54.2469 81.605 53.8059 81.749 53.4279 82.037C53.0499 82.307 52.7529 82.712 52.5369 83.252C52.3389 83.792 52.2399 84.458 52.2399 85.25C52.2399 86.006 52.3299 86.663 52.5099 87.221C52.7079 87.761 52.9959 88.175 53.3739 88.463C53.7519 88.751 54.2019 88.895 54.7239 88.895ZM71.1657 92.27C69.6717 92.27 68.3757 91.991 67.2777 91.433C66.1977 90.875 65.3607 90.074 64.7667 89.03C64.1727 87.986 63.8757 86.726 63.8757 85.25C63.8757 83.774 64.1727 82.514 64.7667 81.47C65.3607 80.426 66.1887 79.625 67.2507 79.067C68.3307 78.509 69.5637 78.23 70.9497 78.23C72.3717 78.23 73.5777 78.509 74.5677 79.067C75.5757 79.607 76.3407 80.363 76.8627 81.335C77.3847 82.289 77.6457 83.387 77.6457 84.629C77.6457 84.953 77.6367 85.277 77.6187 85.601C77.6007 85.925 77.5737 86.195 77.5377 86.411H66.8457V83.954H75.5127L73.3257 84.791C73.3257 83.711 73.1277 82.883 72.7317 82.307C72.3537 81.731 71.7597 81.443 70.9497 81.443C70.3737 81.443 69.8787 81.578 69.4647 81.848C69.0687 82.118 68.7627 82.541 68.5467 83.117C68.3487 83.693 68.2497 84.431 68.2497 85.331C68.2497 86.213 68.3667 86.933 68.6007 87.491C68.8347 88.031 69.1677 88.427 69.5997 88.679C70.0317 88.913 70.5537 89.03 71.1657 89.03C71.8497 89.03 72.3897 88.895 72.7857 88.625C73.1997 88.355 73.5057 87.977 73.7037 87.491L77.3757 88.706C77.1237 89.48 76.6827 90.137 76.0527 90.677C75.4407 91.199 74.7027 91.595 73.8387 91.865C72.9927 92.135 72.1017 92.27 71.1657 92.27ZM83.4969 78.5L86.7909 84.575L88.3029 84.44L93.6219 92H88.3569L84.9549 85.844H83.3619L78.2049 78.5H83.4969ZM93.5139 78.5L88.4109 85.79L86.7099 85.682L83.1729 92H78.0159L83.4429 84.386L85.0089 84.602L88.3569 78.5H93.5139Z" fill="white"/>
</svg>
